<?xml version="1.0" encoding="utf-8"?>
<!-- Generator: Adobe Illustrator 19.0.0, SVG Export Plug-In . SVG Version: 6.00 Build 0)  -->
<svg version="1.1" id="restless" xmlns="http://www.w3.org/2000/svg" xmlns:xlink="http://www.w3.org/1999/xlink" x="0px" y="0px"
	 viewBox="0 0 78 17" style="enable-background:new 0 0 78 17;" xml:space="preserve">
<style type="text/css">
	.st0{fill:#fff;}
</style>
<g>
	<path class="st0" d="M3.5,4.4v2.1c0.8-1.5,1.9-2.2,3.4-2.2v3H6.2c-0.9,0-1.5,0.2-2,0.7c-0.4,0.4-0.7,1.2-0.7,2.3V16h-3V4.4H3.5z"/>
	<path class="st0" d="M13.4,16.2c-1.7,0-3.1-0.5-4.1-1.6c-1.1-1.1-1.6-2.6-1.6-4.4c0-1.8,0.5-3.3,1.6-4.3c1.1-1.1,2.5-1.6,4.2-1.6
		s3.1,0.5,4.2,1.6c1.1,1.1,1.6,2.5,1.6,4.2c0,0.4,0,0.8-0.1,1.1h-8.5c0.1,0.8,0.4,1.4,0.8,1.8c0.5,0.5,1.1,0.7,1.9,0.7
		c1,0,1.8-0.4,2.3-1.3h3.2c-0.3,1.1-1,2-2,2.7C16,15.8,14.8,16.2,13.4,16.2z M15.4,7.4c-0.5-0.5-1.2-0.7-1.9-0.7
		c-0.7,0-1.4,0.2-1.9,0.7s-0.8,1.1-0.9,1.8h5.5C16.2,8.5,15.9,7.9,15.4,7.4z"/>
	<path class="st0" d="M20.4,7.8c0-1,0.4-1.9,1.3-2.5s2-1,3.4-1c1.4,0,2.5,0.3,3.4,1c0.9,0.7,1.3,1.6,1.4,2.8h-3
		c-0.1-1-0.7-1.5-1.8-1.5c-0.6,0-1,0.1-1.3,0.3c-0.3,0.2-0.5,0.5-0.5,0.9s0.2,0.7,0.7,0.9c0.5,0.2,1,0.4,1.7,0.5
		c0.7,0.1,1.3,0.3,2,0.5c0.7,0.2,1.2,0.5,1.7,1c0.5,0.5,0.7,1.1,0.7,1.9c0,1-0.4,1.9-1.3,2.6c-0.9,0.7-2,1-3.4,1s-2.5-0.3-3.4-1
		c-0.9-0.7-1.4-1.6-1.4-2.8h3c0.1,1,0.7,1.5,1.9,1.5c0.5,0,1-0.1,1.3-0.4c0.3-0.2,0.5-0.6,0.5-1c0-0.4-0.2-0.7-0.7-0.9
		c-0.5-0.2-1-0.4-1.7-0.5s-1.3-0.3-2-0.5s-1.2-0.5-1.7-1C20.7,9.1,20.4,8.5,20.4,7.8z"/>
	<path class="st0" d="M36.5,13.5h1.4V16H36c-1.2,0-2.1-0.3-2.8-0.8s-1-1.4-1-2.7V6.8h-1.2V4.4h1.2V1.5h3v2.9h2.6v2.4h-2.6v5.7
		c0,0.4,0.1,0.6,0.3,0.8C35.7,13.4,36.1,13.5,36.5,13.5z"/>
	<path class="st0" d="M39.7,16V0.5h3V16H39.7z"/>
	<path class="st0" d="M50.2,16.2c-1.7,0-3.1-0.5-4.1-1.6c-1.1-1.1-1.6-2.6-1.6-4.4c0-1.8,0.5-3.3,1.6-4.3c1.1-1.1,2.5-1.6,4.2-1.6
		s3.1,0.5,4.2,1.6c1.1,1.1,1.6,2.5,1.6,4.2c0,0.4,0,0.8-0.1,1.1h-8.5c0.1,0.8,0.3,1.4,0.8,1.8c0.5,0.5,1.1,0.7,1.9,0.7
		c1,0,1.8-0.4,2.3-1.3h3.2c-0.3,1.1-1,2-2,2.7S51.6,16.2,50.2,16.2z M52.1,7.4c-0.5-0.5-1.2-0.7-1.9-0.7s-1.4,0.2-1.9,0.7
		s-0.8,1.1-0.9,1.8H53C52.9,8.5,52.7,7.9,52.1,7.4z"/>
	<path class="st0" d="M57.2,7.8c0-1,0.4-1.9,1.3-2.5c0.9-0.7,2-1,3.4-1c1.4,0,2.5,0.3,3.4,1c0.9,0.7,1.3,1.6,1.4,2.8h-3
		c-0.1-1-0.7-1.5-1.8-1.5c-0.6,0-1,0.1-1.3,0.3c-0.3,0.2-0.5,0.5-0.5,0.9s0.2,0.7,0.7,0.9c0.5,0.2,1,0.4,1.7,0.5
		c0.7,0.1,1.3,0.3,2,0.5c0.7,0.2,1.2,0.5,1.7,1c0.5,0.5,0.7,1.1,0.7,1.9c0,1-0.4,1.9-1.3,2.6c-0.9,0.7-2,1-3.4,1s-2.5-0.3-3.4-1
		c-0.9-0.7-1.4-1.6-1.4-2.8h3c0.1,1,0.7,1.5,1.9,1.5c0.5,0,1-0.1,1.3-0.4c0.3-0.2,0.5-0.6,0.5-1c0-0.4-0.2-0.7-0.7-0.9
		c-0.5-0.2-1-0.4-1.7-0.5s-1.3-0.3-2-0.5c-0.7-0.2-1.2-0.5-1.7-1C57.4,9.1,57.2,8.5,57.2,7.8z"/>
	<path class="st0" d="M68.1,7.8c0-1,0.4-1.9,1.3-2.5c0.9-0.7,2-1,3.4-1s2.5,0.3,3.4,1C77,5.9,77.5,6.8,77.6,8h-3
		c-0.1-1-0.7-1.5-1.8-1.5c-0.6,0-1,0.1-1.3,0.3C71.1,7.1,71,7.4,71,7.8s0.2,0.7,0.7,0.9c0.5,0.2,1,0.4,1.7,0.5s1.3,0.3,2,0.5
		c0.7,0.2,1.2,0.5,1.7,1c0.5,0.5,0.7,1.1,0.7,1.9c0,1-0.4,1.9-1.3,2.6c-0.9,0.7-2,1-3.4,1s-2.5-0.3-3.4-1s-1.4-1.6-1.4-2.8h3
		c0.1,1,0.7,1.5,1.9,1.5c0.5,0,1-0.1,1.3-0.4c0.3-0.2,0.5-0.6,0.5-1c0-0.4-0.2-0.7-0.7-0.9c-0.5-0.2-1-0.4-1.7-0.5s-1.3-0.3-2-0.5
		c-0.7-0.2-1.2-0.5-1.7-1C68.3,9.1,68.1,8.5,68.1,7.8z"/>
</g>
</svg>
