<?xml version="1.0" encoding="utf-8"?>
<!-- Generator: Adobe Illustrator 20.1.0, SVG Export Plug-In . SVG Version: 6.00 Build 0)  -->
<svg version="1.1" id="Layer_1" xmlns="http://www.w3.org/2000/svg" xmlns:xlink="http://www.w3.org/1999/xlink" x="0px" y="0px"
	 viewBox="0 0 792 612" style="enable-background:new 0 0 792 612;" xml:space="preserve">
<style type="text/css">
	.st0{fill:#FFFFFF;}
</style>
<g>
	<path class="st0" d="M324.5,291.8c5.9,0,9.1,4.1,9.1,9.1c0,5.1-3.3,9-9.2,9h-5.2v8.6h-5.6v-26.7H324.5z M319.3,305.4h3
		c3.5,0,5.6-1.1,5.6-4.5c0-2.9-1.7-4.5-4.6-4.5h-4.1V305.4z"/>
	<path class="st0" d="M340.4,308.6c0,3.5,2.1,5.4,5.3,5.4c3.1,0,5.2-1.9,5.2-5.4v-16.8h5.7v17.4c0,5.9-4.3,9.7-10.9,9.7
		s-10.9-3.9-10.9-9.8v-17.4h5.6V308.6z"/>
	<path class="st0" d="M379.9,300.4c0,4.4-2.9,6.7-4.8,7.5l5.4,10.6h-6.3l-4.6-9.7h-4.4v9.7h-5.6v-26.7h10.9
		C376.9,291.8,379.9,295.5,379.9,300.4z M369.6,304.5c2.8,0,4.6-1.3,4.6-4c0-2.8-1.9-4.2-4.5-4.2h-4.5v8.1H369.6z"/>
	<path class="st0" d="M399.6,318.5h-17.4v-26.7h17.4v4.7h-11.8v6.3h11.1v4.4h-11.1v6.5h11.8V318.5z"/>
	<path class="st0" d="M402.2,318.5v-26.7h4.6l11.4,16.7h0.2v-16.7h5.3v26.7h-4.6l-11.4-16.8h-0.2v16.8H402.2z"/>
	<path class="st0" d="M427,318.5v-26.7h5.7v26.7H427z"/>
	<path class="st0" d="M436,318.5v-26.7h4.6l11.4,16.7h0.2v-16.7h5.3v26.7h-4.6l-11.4-16.8h-0.2v16.8H436z"/>
	<path class="st0" d="M478.3,318.5h-17.4v-26.7h17.4v4.7h-11.8v6.3h11.1v4.4h-11.1v6.5h11.8V318.5z"/>
</g>
</svg>
