<?xml version="1.0" encoding="UTF-8"?>
<svg width="53px" height="60px" viewBox="0 0 53 60" version="1.1" xmlns="http://www.w3.org/2000/svg" xmlns:xlink="http://www.w3.org/1999/xlink">
    <!-- Generator: Sketch 42 (36781) - http://www.bohemiancoding.com/sketch -->
    <title>logo-white</title>
    <desc>Created with Sketch.</desc>
    <defs></defs>
    <g id="Symbols" stroke="none" stroke-width="1" fill="none" fill-rule="evenodd">
        <g id="logo-white" fill="#FFFFFF">
            <path d="M34.4181486,-0.0004 L1.74355471,-0.0004 C0.780425544,-0.0004 -0.0004,0.781266667 -0.0004,1.74543333 L-0.0004,58.2507111 C-0.0004,59.3322389 0.874074663,59.9996 1.76263138,59.9996 C2.30461698,59.9996 2.85194406,59.7511972 3.20905936,59.1968222 L35.8837226,2.69161389 C36.6320831,1.52987778 35.7990222,-0.0004 34.4181486,-0.0004 M28.7271263,5.028975 L5.02356307,46.020225 L5.02356307,5.028975 L28.7271263,5.028975 M41.6355127,4.08244722 C40.9930798,4.08244722 40.3610523,4.41050278 40.0092784,5.02078056 L15.686868,47.2142528 C15.0993065,48.23335 15.5868369,49.5255722 16.6927289,49.9243222 C19.5058097,50.9386972 22.5387231,51.4922389 25.7010111,51.4922389 C25.7756529,51.4922389 25.8502947,51.4918917 25.9251446,51.4912667 C40.6464393,51.3697389 52.5572892,39.1098778 52.2867473,24.3746694 C52.1405853,16.4156417 48.504849,9.310225 42.8467774,4.52716944 C42.490772,4.22619722 42.0608185,4.08244722 41.6355127,4.08244722 M42.3061098,11.0984889 C45.402219,14.8391833 47.1732973,19.5447389 47.263686,24.4671 C47.3697523,30.2455028 45.1884909,35.7304333 41.1214831,39.9116139 C37.0590537,44.0882111 31.6475914,46.4145306 25.883939,46.4621 C25.8228937,46.4625861 25.7619177,46.4628639 25.7010111,46.4628639 C24.4835032,46.4628639 23.2784818,46.3623778 22.0934389,46.1626556 L42.3061098,11.0984889"></path>
        </g>
    </g>
</svg>