<?xml version="1.0" encoding="utf-8"?>
<!-- Generator: Adobe Illustrator 19.2.0, SVG Export Plug-In . SVG Version: 6.00 Build 0)  -->
<svg version="1.1" id="Layer_1" xmlns="http://www.w3.org/2000/svg" xmlns:xlink="http://www.w3.org/1999/xlink" x="0px" y="0px"
	 viewBox="0 0 64 64" style="enable-background:new 0 0 64 64;" xml:space="preserve">
<style type="text/css">
	.st0{fill:none;stroke:#FFFFFF;stroke-width:2;stroke-miterlimit:10;}
</style>
<path class="st0" d="M21,40v5h22l0-5.1c6-3.7,10-10.3,10-17.9c0-11.6-9.4-21-21-21s-21,9.4-21,21C11,29.6,15,36.3,21,40z"/>
<line class="st0" x1="28" y1="45" x2="25" y2="25"/>
<line class="st0" x1="36" y1="45" x2="39" y2="25"/>
<polyline class="st0" points="25,26 29,29 32,26 35,29 39,26 "/>
<rect x="21" y="45" class="st0" width="22" height="6"/>
<rect x="23" y="51" class="st0" width="18" height="6"/>
<rect x="25" y="57" class="st0" width="14" height="6"/>
</svg>
