<?xml version="1.0" encoding="utf-8"?>
<!-- Generator: Adobe Illustrator 19.2.0, SVG Export Plug-In . SVG Version: 6.00 Build 0)  -->
<svg version="1.1" id="Layer_1" xmlns="http://www.w3.org/2000/svg" xmlns:xlink="http://www.w3.org/1999/xlink" x="0px" y="0px"
	 viewBox="0 0 64 64" style="enable-background:new 0 0 64 64;" xml:space="preserve">
<style type="text/css">
	.st0{fill:none;stroke:#FFFFFF;stroke-width:2;stroke-miterlimit:10;}
</style>
<line class="st0" x1="36" y1="34" x2="41" y2="39"/>
<rect x="46.3" y="35.1" transform="matrix(0.7071 -0.7071 0.7071 0.7071 -19.503 49.9149)" class="st0" width="8.5" height="26.9"/>
<polygon class="st0" points="12,16 18,10 8,4 6,6 "/>
<line class="st0" x1="28" y1="26" x2="15" y2="13"/>
<path class="st0" d="M58,12.5l-8,3.8l-4-4.1l3.5-8.1l0,0C39.5,4.1,37,9,37,14v4L3.5,52l-1.8,6l2.1,2l6.1-1.5L44,25h4
	C53,25,58,22.5,58,12.5L58,12.5z"/>
</svg>
