<?xml version="1.0" encoding="utf-8"?>
<!-- Generator: Adobe Illustrator 19.2.1, SVG Export Plug-In . SVG Version: 6.00 Build 0)  -->
<svg version="1.1" id="Layer_1" xmlns="http://www.w3.org/2000/svg" xmlns:xlink="http://www.w3.org/1999/xlink" x="0px" y="0px"
	 viewBox="0 0 558.3 143" style="enable-background:new 0 0 558.3 143;" xml:space="preserve">
<style type="text/css">
	.st0{fill:#BBD232;}
</style>
<g>
	<path class="st0" d="M18.4,38.4h9.9v14.1c3.9-5.4,8.4-9.4,13.4-12.1c5.1-2.7,10.7-4,17-4c10.9,0,20.2,3.9,28,11.8
		c7.7,7.8,11.6,17.3,11.6,28.3c0,11.3-3.8,20.9-11.5,28.7C79.1,113.1,69.9,117,59,117c-6.1,0-11.7-1.3-16.8-3.8s-9.7-6.3-13.9-11.3
		V143h-9.9C18.4,143,18.4,38.4,18.4,38.4z M58,46c-8.5,0-15.7,3-21.6,8.9c-5.8,6-8.8,13.4-8.8,22.2c0,5.8,1.3,11,3.9,15.7
		c2.6,4.6,6.3,8.3,11.2,11s10,4.1,15.4,4.1c5.3,0,10.3-1.4,15-4.1s8.4-6.6,11.2-11.5s4.2-10.1,4.2-15.5s-1.4-10.6-4.1-15.5
		S78,52.6,73.3,49.9C68.6,47.3,63.5,46,58,46z"/>
	<path class="st0" d="M104.8,38.4h9.9v35.8c0,8.7,0.5,14.8,1.4,18.1c1.4,4.7,4.1,8.4,8.1,11.1c4,2.7,8.7,4.1,14.2,4.1s10.2-1.3,14-4
		s6.5-6.1,7.9-10.5c1-3,1.5-9.2,1.5-18.8V38.4h10.1V76c0,10.6-1.2,18.5-3.7,23.9s-6.2,9.5-11.1,12.6c-5,3-11.2,4.5-18.6,4.5
		c-7.5,0-13.7-1.5-18.7-4.5s-8.7-7.3-11.2-12.7c-2.5-5.4-3.7-13.6-3.7-24.5L104.8,38.4L104.8,38.4z"/>
	<path class="st0" d="M276.2,89.6l8.3,4.4c-2.7,5.4-5.9,9.7-9.4,13c-3.6,3.3-7.6,5.8-12.1,7.5s-9.5,2.6-15.2,2.6
		c-12.5,0-22.3-4.1-29.3-12.3S207.9,87.3,207.9,77c0-9.7,3-18.4,9-26c7.6-9.7,17.7-14.5,30.4-14.5c13.1,0,23.5,5,31.3,14.9
		c5.5,7,8.4,15.7,8.5,26.2h-69c0.2,8.9,3,16.2,8.5,21.9c5.5,5.7,12.3,8.5,20.4,8.5c3.9,0,7.7-0.7,11.4-2c3.7-1.4,6.8-3.2,9.4-5.4
		C270.3,98.3,273.1,94.7,276.2,89.6z M276.1,69c-1.3-5.3-3.2-9.5-5.7-12.6s-5.8-5.7-10-7.6c-4.1-1.9-8.5-2.9-13-2.9
		c-7.5,0-14,2.4-19.4,7.3c-3.9,3.5-6.9,8.8-9,15.9L276.1,69L276.1,69z"/>
	<path class="st0" d="M294.8,38.4h9.9v13.8c3.9-5.3,8.3-9.2,13.1-11.8c4.8-2.6,10-3.9,15.6-3.9c5.7,0,10.8,1.5,15.3,4.4
		c4.4,2.9,7.7,6.8,9.8,11.8c2.1,4.9,3.2,12.6,3.2,23v39.5h-9.9V78.6c0-8.8-0.4-14.7-1.1-17.7c-1.1-5.1-3.3-8.9-6.6-11.4
		c-3.2-2.6-7.5-3.8-12.7-3.8c-6,0-11.3,2-16,5.9s-7.8,8.8-9.3,14.7c-0.9,3.8-1.4,10.8-1.4,20.9v28.1h-9.9V38.4z"/>
	<path class="st0" d="M370.7,38.4h9.9v76.7h-9.9V38.4z"/>
	<path class="st0" d="M390.3,38.4h9.9v13.8c3.9-5.3,8.3-9.2,13.1-11.8c4.8-2.6,10-3.9,15.6-3.9c5.7,0,10.8,1.5,15.3,4.4
		c4.4,2.9,7.7,6.8,9.8,11.8c2.1,4.9,3.2,12.6,3.2,23v39.5h-9.9V78.6c0-8.8-0.4-14.7-1.1-17.7c-1.1-5.1-3.3-8.9-6.6-11.4
		c-3.2-2.6-7.5-3.8-12.7-3.8c-6,0-11.3,2-16,5.9s-7.8,8.8-9.3,14.7c-0.9,3.8-1.4,10.8-1.4,20.9v28.1h-9.9V38.4L390.3,38.4z"/>
	<path class="st0" d="M532.1,89.6l8.3,4.4c-2.7,5.4-5.9,9.7-9.4,13c-3.6,3.3-7.6,5.8-12.1,7.5s-9.5,2.6-15.2,2.6
		c-12.5,0-22.3-4.1-29.3-12.3S463.8,87.3,463.8,77c0-9.7,3-18.4,9-26c7.6-9.7,17.7-14.5,30.4-14.5c13.1,0,23.5,5,31.3,14.9
		c5.5,7,8.4,15.7,8.5,26.2h-69c0.2,8.9,3,16.2,8.5,21.9c5.5,5.7,12.3,8.5,20.4,8.5c3.9,0,7.7-0.7,11.4-2c3.7-1.4,6.8-3.2,9.4-5.4
		C526.3,98.3,529.1,94.7,532.1,89.6z M532.1,69c-1.3-5.3-3.2-9.5-5.7-12.6s-5.8-5.7-10-7.6c-4.1-1.9-8.5-2.9-13-2.9
		c-7.5,0-14,2.4-19.4,7.3c-4,3.5-6.9,8.8-9,15.9L532.1,69L532.1,69z"/>
	<path class="st0" d="M375.6,20.3c1.8,0,3.3,0.6,4.5,1.9c1.2,1.2,1.9,2.8,1.9,4.5s-0.6,3.2-1.9,4.5c-1.3,1.2-2.8,1.9-4.5,1.9
		s-3.2-0.6-4.5-1.9c-1.2-1.2-1.9-2.7-1.9-4.5s0.6-3.3,1.9-4.5S373.9,20.3,375.6,20.3z"/>
	<path class="st0" d="M212.3,47.1c0.3-0.5,0.7-1,1-1.4c1.7-2.2,3.6-4.2,5.7-5.9l-0.9-0.7c-3.1-1.7-6-2.6-8.7-2.6
		c-3.6,0-7.1,1.1-10.4,3.3c-3.3,2.2-6.5,5.5-9.5,9.9V38.5h-10.1v76.7h10.1V89.3c0-13.3,0.6-22.1,1.8-26.5c1.6-5.7,3.9-9.9,7-12.6
		s6.2-4.1,9.5-4.1C209,46,210.5,46.4,212.3,47.1z"/>
</g>
</svg>
