<svg width="54" height="61" viewBox="-1 -1 54 61" xmlns="http://www.w3.org/2000/svg">
  <path d="M34.418 0H1.744C.78 0 0 .78 0 1.745V58.25C0 59.333.874 60 1.763 60c.542 0 1.09-.25 1.446-.803L35.88 2.692C36.632 1.53 35.8 0 34.418 0m-5.69 5.03L5.023 46.02V5.03h23.703m12.91-.948c-.644 0-1.276.33-1.628.94l-24.322 42.19c-.588 1.02-.1 2.313 1.006 2.71 2.813 1.016 5.846 1.57 9.008 1.57h.225c14.72-.123 26.632-12.383 26.362-27.118-.146-7.96-3.782-15.065-9.44-19.848-.356-.3-.786-.445-1.21-.445m.67 7.02c3.095 3.74 4.866 8.447 4.957 13.37.106 5.778-2.076 11.26-6.143 15.444-4.06 4.177-9.47 6.504-15.232 6.55H25.7c-1.216 0-2.422-.1-3.607-.3L42.306 11.1" fill="#020302" fill-rule="evenodd"/>
</svg>
